<?xml version="1.0" standalone="no"?>
<!DOCTYPE svg PUBLIC "-//W3C//DTD SVG 20010904//EN"
 "http://www.w3.org/TR/2001/REC-SVG-20010904/DTD/svg10.dtd">
<svg version="1.0" xmlns="http://www.w3.org/2000/svg"
 width="960.000000pt" height="960.000000pt" viewBox="0 0 960.000000 960.000000"
 preserveAspectRatio="xMidYMid meet">
<metadata>
Created by potrace 1.11, written by Peter Selinger 2001-2013
</metadata>
<g transform="translate(0.000000,960.000000) scale(0.100000,-0.100000)"
fill="#000000" stroke="none">
<path d="M4480 9590 c-1029 -72 -1977 -455 -2775 -1121 -212 -177 -491 -466
-676 -699 -924 -1168 -1249 -2706 -880 -4162 154 -604 435 -1190 810 -1688
661 -877 1599 -1504 2649 -1771 1304 -331 2668 -108 3797 619 467 301 895 701
1237 1157 986 1312 1228 3038 643 4580 -650 1712 -2217 2902 -4050 3075 -153
14 -605 20 -755 10z m1670 -3460 l0 -280 -535 0 -535 0 0 -1590 0 -1590 -295
0 -295 0 0 1590 0 1590 -520 0 -520 0 0 280 0 280 1350 0 1350 0 0 -280z"/>
</g>
</svg>
